<svg xmlns="http://www.w3.org/2000/svg" width="35.28mm" height="25.91mm" viewBox="0 0 100 73.44"><defs><style>.a{fill:#6dc5cd;}</style></defs><title>prize-lotus</title><path class="a" d="M49.92,71.54a.84.84,0,0,1-.52-.18c-.16-.13-16.06-13.06-16.06-35.58S49.24.31,49.4.18a.84.84,0,0,1,1,0c.16.13,16.06,13.07,16.06,35.59S50.61,71.23,50.45,71.35A.84.84,0,0,1,49.92,71.54ZM49.92,2C47.22,4.38,35,16.39,35,35.77s12.2,31.39,14.9,33.81c2.7-2.42,14.9-14.43,14.9-33.81S52.63,4.38,49.92,2Z"/><path class="a" d="M59.57,68.34a.84.84,0,0,1-.36-1.6,41.15,41.15,0,0,0,18.1-16.57A41.91,41.91,0,0,0,81,17.25a41.18,41.18,0,0,0-12.05,4.82A.84.84,0,1,1,68,20.62a40.47,40.47,0,0,1,13.35-5.17.83.83,0,0,1,.91.53,43.6,43.6,0,0,1-3.53,35A42.82,42.82,0,0,1,59.93,68.26.83.83,0,0,1,59.57,68.34Z"/><path class="a" d="M62.23,73.44q-1.1,0-2.22-.06a.84.84,0,0,1,.09-1.68,36.59,36.59,0,0,0,20.42-4.78A37.65,37.65,0,0,0,98.19,43.07,37.15,37.15,0,0,0,87.14,41.4a.84.84,0,0,1,0-1.68h0a36.49,36.49,0,0,1,12.33,2,.84.84,0,0,1,.52.91A38.61,38.61,0,0,1,81.35,68.38,38,38,0,0,1,62.23,73.44Z"/><path class="a" d="M40.43,68.34a.83.83,0,0,1-.36-.08A42.82,42.82,0,0,1,21.23,51,43.61,43.61,0,0,1,17.7,16a.83.83,0,0,1,.91-.53A40.47,40.47,0,0,1,32,20.62a.84.84,0,1,1-.86,1.45A41,41,0,0,0,19,17.25a42,42,0,0,0,3.65,32.92,41.15,41.15,0,0,0,18.1,16.57.84.84,0,0,1-.36,1.6Z"/><path class="a" d="M37.77,73.44a38,38,0,0,1-19.12-5.06A38.6,38.6,0,0,1,0,42.65a.84.84,0,0,1,.52-.91,36.48,36.48,0,0,1,12.33-2h0a.84.84,0,0,1,0,1.68A37.13,37.13,0,0,0,1.81,43.07,37.72,37.72,0,0,0,19.48,66.92,36.59,36.59,0,0,0,39.9,71.7a.86.86,0,0,1,.89.8.84.84,0,0,1-.8.89Q38.88,73.44,37.77,73.44Z"/></svg>