<svg xmlns="http://www.w3.org/2000/svg" width="38.01mm" height="35.28mm" viewBox="0 0 107.73 100"><defs><style>.a{fill:#5060a3;}</style></defs><title>prize-jacket</title><path class="a" d="M40.69,23.06l-.23,0a1,1,0,0,1-.67-.57L33.14,6.77a1,1,0,0,1,.3-1.15L40,.48A1,1,0,0,1,41.38.7l9.11,13.25a1,1,0,0,1-.18,1.3l-9,7.58A1,1,0,0,1,40.69,23.06ZM35.23,6.69l5.84,13.79,7.31-6.16-8-11.67Z"/><path class="a" d="M45.25,78.19a1,1,0,0,1-.28,0L31.11,74a1,1,0,1,1,.56-1.87l13.86,4.16a1,1,0,0,1-.28,1.91Z"/><path class="a" d="M67.19,23.06a1,1,0,0,1-.63-.23l-9-7.58a1,1,0,0,1-.18-1.3L66.5.7A1,1,0,0,1,67.91.48l6.53,5.14a1,1,0,0,1,.3,1.15l-6.65,15.7a1,1,0,0,1-.67.57ZM59.5,14.33l7.31,6.16L72.65,6.69l-5.13-4Z"/><path class="a" d="M40.63,2.31A1,1,0,0,1,40.57.36c.06,0,6-.36,12.89-.36S67.23.35,67.3.36a1,1,0,1,1-.1,1.95C67.13,2.3,60.27,2,53.46,2s-12.72.35-12.78.35Z"/><path class="a" d="M58.82,8.66l-.18,0a38.7,38.7,0,0,0-4.82-.16,33.45,33.45,0,0,0-4.55.15h0l-.49-1.89a28.57,28.57,0,0,1,5-.21A36.07,36.07,0,0,1,59,6.73a1,1,0,0,1-.18,1.93Z"/><path class="a" d="M62.63,78.19a1,1,0,0,1-.28-1.91l13.86-4.16A1,1,0,1,1,76.77,74L62.91,78.15A1,1,0,0,1,62.63,78.19Z"/><path class="a" d="M53.85,100c-19.71,0-30-1.46-30.14-1.47a1,1,0,0,1-.83-1l3.26-52.94a36.43,36.43,0,0,0-4.91,9.74C18.79,61.82,15,92.34,15,92.63a1,1,0,0,1-1,.85h0c-.15,0-3.64,0-7-.37A37.31,37.31,0,0,1,.69,91.84a1,1,0,0,1-.68-1C0,90.61,2.07,71,4.17,58.19S11.42,24.53,13,21.55c1.08-2.1,3.2-4.36,6.31-6.71,4.43-3.36,10.5-7,10.56-7a1,1,0,0,1,1,1.67c-.06,0-6,3.63-10.38,6.93a20.23,20.23,0,0,0-5.75,6.06C13.37,25,8.25,45.4,6.1,58.51,4.24,69.79,2.44,86.35,2,90.19a36.33,36.33,0,0,0,5.2,1c2.27.24,4.68.32,5.92.35.66-5,3.94-30.78,6.22-37.83A36.49,36.49,0,0,1,26.6,40.84a1,1,0,0,1,1.68.73l-3.4,55.14a256.76,256.76,0,0,0,29,1.34,1,1,0,0,1,0,2Z"/><path class="a" d="M53.89,100a1,1,0,0,1,0-2,256.45,256.45,0,0,0,29-1.34l-3.4-55.14a1,1,0,0,1,1.68-.73,36.49,36.49,0,0,1,7.23,12.86c2.28,7,5.56,32.83,6.22,37.83,1.24,0,3.65-.11,5.92-.35a36.32,36.32,0,0,0,5.2-1c-.41-3.85-2.21-20.4-4.07-31.68C99.48,45.4,94.37,25,93,22.44a20.22,20.22,0,0,0-5.75-6.06C82.95,13.09,77,9.49,76.91,9.46a1,1,0,1,1,1-1.67c.06,0,6.13,3.68,10.56,7,3.1,2.36,5.22,4.62,6.31,6.71,1.54,3,6.7,23.94,8.79,36.65s4.15,32.42,4.17,32.62a1,1,0,0,1-.68,1,37.31,37.31,0,0,1-6.34,1.27c-3.34.36-6.83.37-7,.37h0a1,1,0,0,1-1-.85c0-.29-3.82-30.81-6.25-38.34a36.43,36.43,0,0,0-4.91-9.74L84.86,97.5a1,1,0,0,1-.83,1C83.92,98.54,73.59,100,53.89,100Z"/><path class="a" d="M53.94,95a1,1,0,0,1-1-1V19.82a1,1,0,1,1,2,0V94A1,1,0,0,1,53.94,95Z"/></svg>