<svg xmlns="http://www.w3.org/2000/svg" width="35.28mm" height="26.8mm" viewBox="0 0 100 75.97"><defs><style>.a{fill:#add081;}</style></defs><title>prize-bed</title><path class="a" d="M94.22,76a.9.9,0,0,1-.9-.9V41.32a8,8,0,0,0-8-8H14.7a8,8,0,0,0-8,8V75.07a.9.9,0,1,1-1.81,0V41.32A9.83,9.83,0,0,1,14.7,31.5H85.3a9.83,9.83,0,0,1,9.82,9.82V75.07A.9.9,0,0,1,94.22,76Z"/><path class="a" d="M86.51,33.31a.9.9,0,0,1-.9-.9V8a6.24,6.24,0,0,0-6.23-6.23H20.63A6.24,6.24,0,0,0,14.39,8V32.4a.9.9,0,1,1-1.81,0V8a8,8,0,0,1,8-8H79.37a8,8,0,0,1,8,8V32.4A.9.9,0,0,1,86.51,33.31Z"/><path class="a" d="M99.1,76H.9a.9.9,0,0,1,0-1.81H99.1a.9.9,0,0,1,0,1.81Z"/><path class="a" d="M46.62,26.82a.9.9,0,0,1-.9-.9v-3a6.09,6.09,0,0,0-5.91-6.23H26.37a6.09,6.09,0,0,0-5.91,6.23v3a.9.9,0,0,1-1.81,0v-3a7.89,7.89,0,0,1,7.72-8H39.8a7.89,7.89,0,0,1,7.72,8v3A.9.9,0,0,1,46.62,26.82Z"/><path class="a" d="M80,26.82a.9.9,0,0,1-.9-.9v-3a6.09,6.09,0,0,0-5.91-6.23H59.73a6.09,6.09,0,0,0-5.92,6.23v3a.9.9,0,1,1-1.81,0v-3a7.89,7.89,0,0,1,7.72-8H73.17a7.89,7.89,0,0,1,7.72,8v3A.9.9,0,0,1,80,26.82Z"/><path class="a" d="M86.51,61.63h-73a.9.9,0,0,1-.9-.9V44.68a.9.9,0,1,1,1.81,0V59.82H85.6V44.68a.9.9,0,0,1,1.81,0V60.73A.9.9,0,0,1,86.51,61.63Z"/><path class="a" d="M86.51,76a.9.9,0,0,1-.9-.9V68.66H14.39v6.41a.9.9,0,1,1-1.81,0V67.75a.9.9,0,0,1,.9-.9h73a.9.9,0,0,1,.9.9v7.31A.9.9,0,0,1,86.51,76Z"/></svg>