<svg xmlns="http://www.w3.org/2000/svg" width="35.28mm" height="54.69mm" viewBox="0 0 100 155.03"><defs><style>.a{fill:#f2c96f;}</style></defs><title>prize-lobster</title><path class="a" d="M61.29,120.37,59,118.74c7-10,11.45-27,11.45-43.27h2.85C73.25,92.27,68.56,109.9,61.29,120.37Z"/><path class="a" d="M60.12,121A1.42,1.42,0,0,1,59,118.74c7-10,11.45-27,11.45-43.27a1.42,1.42,0,1,1,2.85,0c0,16.8-4.69,34.42-12,44.89A1.42,1.42,0,0,1,60.12,121Z"/><path class="a" d="M38.72,120.37c-7.27-10.48-12-28.1-12-44.9H29.6c0,16.25,4.5,33.24,11.46,43.27Z"/><path class="a" d="M39.89,121a1.42,1.42,0,0,1-1.17-.61c-7.27-10.48-12-28.1-12-44.9a1.42,1.42,0,1,1,2.85,0c0,16.25,4.5,33.24,11.46,43.27A1.42,1.42,0,0,1,39.89,121Z"/><path class="a" d="M29.6,74.9H26.75c0-27.49,12.05-40,23.25-40v2.85C40.17,37.75,29.6,49.38,29.6,74.9Z"/><path class="a" d="M28.17,76.33a1.42,1.42,0,0,1-1.42-1.42c0-27.49,12.05-40,23.25-40a1.42,1.42,0,1,1,0,2.85c-9.83,0-20.4,11.63-20.4,37.16A1.42,1.42,0,0,1,28.17,76.33Z"/><path class="a" d="M73.25,74.9H70.4c0-25.53-10.58-37.16-20.4-37.16V34.9C61.2,34.9,73.25,47.42,73.25,74.9Z"/><path class="a" d="M71.83,76.33A1.42,1.42,0,0,1,70.4,74.9c0-25.53-10.58-37.16-20.4-37.16a1.42,1.42,0,1,1,0-2.85c11.2,0,23.25,12.52,23.25,40A1.42,1.42,0,0,1,71.83,76.33Z"/><path class="a" d="M46.4,47.27H43.55C43.55,19,27.16,2.61,27,2.44l2-2C29.69,1.1,46.4,17.73,46.4,47.27Z"/><path class="a" d="M45,48.7a1.42,1.42,0,0,1-1.42-1.42C43.55,19,27.16,2.61,27,2.44a1.42,1.42,0,0,1,2-2c.71.69,17.42,17.32,17.42,46.87A1.42,1.42,0,0,1,45,48.7Z"/><path class="a" d="M56.44,47.27H53.6a74.22,74.22,0,0,1,1.89-16.7C59.93,11.39,70.57.84,71,.4l2,2c-.1.1-10.5,10.44-14.75,28.77A71.38,71.38,0,0,0,56.44,47.27Z"/><path class="a" d="M55,48.7a1.42,1.42,0,0,1-1.42-1.42,74.22,74.22,0,0,1,1.89-16.7C59.93,11.39,70.57.84,71,.4a1.42,1.42,0,0,1,2,2c-.1.1-10.5,10.44-14.75,28.77a71.38,71.38,0,0,0-1.82,16.05A1.42,1.42,0,0,1,55,48.7Z"/><path class="a" d="M27.19,80C.31,54.35.09,30.47.1,29.46l0-.15C-.3,23,.69,17.77,2.93,14.07c1.94-3.21,4.79-5.16,7.8-5.34l1.42-.09.09,1.42c.43,7.16,2.44,11.11,4.06,13.17s3.91,3.38,6,3.27l1.43-.09.1,1.71c.61,10-2.38,20.93-6.82,24.78l-1.87-2.15C18.66,47.66,21.27,38,21,29.31A10.72,10.72,0,0,1,14,25c-2.44-3.11-4-7.63-4.53-13.14a8.27,8.27,0,0,0-4.15,3.69C4,17.78,2.49,21.95,2.92,29.11l0,.24c0,.35.29,23.84,26.22,48.61Z"/><path class="a" d="M28.17,80.41a1.42,1.42,0,0,1-1-.39C.31,54.35.09,30.47.1,29.46l0-.15C-.3,23,.69,17.77,2.93,14.07c1.94-3.21,4.79-5.16,7.8-5.34a1.39,1.39,0,0,1,1.51,1.34c.43,7.16,2.44,11.11,4.06,13.17s3.91,3.38,6,3.27a1.39,1.39,0,0,1,1,.36,1.43,1.43,0,0,1,.48,1l0,.28c.61,10-2.38,20.93-6.82,24.78a1.42,1.42,0,0,1-1.87-2.15C18.66,47.66,21.27,38,21,29.31A10.72,10.72,0,0,1,14,25c-2.44-3.11-4-7.63-4.53-13.14a8.27,8.27,0,0,0-4.15,3.69C4,17.78,2.49,21.95,2.92,29.11l0,.24c0,.35.29,23.84,26.22,48.61a1.42,1.42,0,0,1-1,2.46Z"/><path class="a" d="M37.57,155l-2-1A15,15,0,0,1,32,151.21a16,16,0,0,1,0-22.3,15.68,15.68,0,0,1,8-4.49,9.32,9.32,0,0,1,8.57,2.53c4.28,4.19,3.3,10.37-.11,13.93a23.84,23.84,0,0,1-4.48,3.67,24.11,24.11,0,0,0-2.14,1.55c-1.17,1-3.9,3.56-4.09,6.73Zm4.33-28a6.31,6.31,0,0,0-1.41.16,13.08,13.08,0,0,0-6.53,3.7,13.26,13.26,0,0,0,0,18.28,17.28,17.28,0,0,0,1.29,1.18A14.7,14.7,0,0,1,40,143.89a26.73,26.73,0,0,1,2.38-1.73,21.09,21.09,0,0,0,4-3.27c2.07-2.15,3.49-6.66.17-9.91A6.62,6.62,0,0,0,41.9,127Z"/><path class="a" d="M36.28,154.16a1.43,1.43,0,0,1-.66-.16A15,15,0,0,1,32,151.21a16,16,0,0,1,0-22.3,15.68,15.68,0,0,1,8-4.49,9.32,9.32,0,0,1,8.57,2.53c4.28,4.19,3.3,10.37-.11,13.93a23.84,23.84,0,0,1-4.48,3.67,24.11,24.11,0,0,0-2.14,1.55c-1.17,1-3.9,3.56-4.09,6.73a1.42,1.42,0,0,1-1.42,1.34ZM41.9,127a6.31,6.31,0,0,0-1.41.16,13.08,13.08,0,0,0-6.53,3.7,13.26,13.26,0,0,0,0,18.28,17.28,17.28,0,0,0,1.29,1.18A14.7,14.7,0,0,1,40,143.89a26.73,26.73,0,0,1,2.38-1.73,21.09,21.09,0,0,0,4-3.27c2.07-2.15,3.49-6.66.17-9.91A6.62,6.62,0,0,0,41.9,127Z"/><path class="a" d="M62.29,155l-.13-2.21c-.19-3.17-2.92-5.77-4.09-6.73a24.18,24.18,0,0,0-2.15-1.56,23.87,23.87,0,0,1-4.47-3.66c-3.41-3.56-4.39-9.74-.11-13.93A9.33,9.33,0,0,1,60,124.43a15.66,15.66,0,0,1,7.93,4.49,16,16,0,0,1-.05,22.29A15.07,15.07,0,0,1,64.24,154Zm-4.33-28A6.57,6.57,0,0,0,53.34,129c-3.33,3.26-1.91,7.76.16,9.92a21.16,21.16,0,0,0,4,3.27,26.63,26.63,0,0,1,2.38,1.73,14.74,14.74,0,0,1,4.69,6.47,16.84,16.84,0,0,0,1.29-1.18,13.26,13.26,0,0,0,0-18.27,13.08,13.08,0,0,0-6.45-3.7A6.7,6.7,0,0,0,58,127.05Z"/><path class="a" d="M63.58,154.16a1.42,1.42,0,0,1-1.42-1.34c-.19-3.17-2.92-5.77-4.09-6.73a24.18,24.18,0,0,0-2.15-1.56,23.87,23.87,0,0,1-4.47-3.66c-3.41-3.56-4.39-9.74-.11-13.93A9.33,9.33,0,0,1,60,124.43a15.66,15.66,0,0,1,7.93,4.49,16,16,0,0,1-.05,22.29A15.07,15.07,0,0,1,64.24,154,1.42,1.42,0,0,1,63.58,154.16ZM58,127.05A6.57,6.57,0,0,0,53.34,129c-3.33,3.26-1.91,7.76.16,9.92a21.16,21.16,0,0,0,4,3.27,26.63,26.63,0,0,1,2.38,1.73,14.74,14.74,0,0,1,4.69,6.47,16.84,16.84,0,0,0,1.29-1.18,13.26,13.26,0,0,0,0-18.27,13.08,13.08,0,0,0-6.45-3.7A6.7,6.7,0,0,0,58,127.05Z"/><path class="a" d="M72.81,80l-2-2.06C96.78,53.19,97.06,29.71,97.06,29.47l0-.37c.43-7.16-1.09-11.32-2.44-13.56a8.26,8.26,0,0,0-4.15-3.69c-.54,5.51-2.1,10-4.53,13.14A10.73,10.73,0,0,1,79,29.31c-.29,8.73,2.32,18.35,5.89,21.45L83,52.91c-4.44-3.85-7.43-14.74-6.82-24.79l.06-1.7,1.46.09c2.09.12,4.24-1.07,6-3.27s3.63-6,4.06-13.17l.09-1.42,1.42.09c3,.18,5.85,2.12,7.79,5.34,2.24,3.7,3.23,9,2.85,15.21l0,.28C99.91,30.47,99.7,54.35,72.81,80Z"/><path class="a" d="M71.83,80.41a1.42,1.42,0,0,1-1-2.46C96.78,53.19,97.06,29.71,97.06,29.47l0-.37c.43-7.16-1.09-11.32-2.44-13.56a8.26,8.26,0,0,0-4.15-3.69c-.54,5.51-2.1,10-4.53,13.14A10.73,10.73,0,0,1,79,29.31c-.29,8.73,2.32,18.35,5.89,21.45A1.42,1.42,0,0,1,83,52.91c-4.44-3.85-7.43-14.74-6.82-24.79v-.24a1.43,1.43,0,0,1,.46-1,1.38,1.38,0,0,1,1-.37c2.09.12,4.24-1.07,6-3.27s3.63-6,4.06-13.17a1.4,1.4,0,0,1,1.51-1.34c3,.18,5.85,2.12,7.79,5.34,2.24,3.7,3.23,9,2.85,15.21l0,.28c0,.91-.2,24.79-27.09,50.46A1.42,1.42,0,0,1,71.83,80.41Z"/></svg>